PathFileType	4	(X/Y/Z)	D:\TRACE\v60_Jaco2_6-2-23\ArmBody_Mo1_DMP_1-platform.trc
DataRate	CameraRate	NumFrames	NumMarkers	Units	OrigDataRate	OrigDataStartFrame	OrigNumFrames
100.00	100.00	      65	5	mm	100.00	725	      5792
Frame#	Time	Left_Front			Right_Front			Left_Aft			Right_Aft			Post			
		X1	Y1	Z1	X2	Y2	Z2	X3	Y3	Z3	X4	Y4	Z4	X5	Y5	Z5	

725	7.240				743.88220	33.60903	-626.51337	-755.96851	-9.66349	485.60089	662.18079	-10.81526	588.67346	-33.71601	1342.76575	-911.66321	
726	7.250				742.92682	33.88123	-626.55798	-756.76251	-10.20996	486.40967	661.62787	-10.93638	588.78119	-34.53836	1343.24341	-911.06561	
727	7.260				742.21185	34.29276	-626.48151	-757.98395	-9.72382	485.66354	660.70502	-11.42299	588.75616	-34.84240	1343.47070	-910.38416	
728	7.270				741.35132	34.67033	-626.50250	-758.50714	-9.85141	485.72455	659.86603	-11.70317	588.86908	-36.19420	1344.07715	-909.81964	
729	7.280				740.82379	34.95311	-626.44867	-759.36951	-10.01843	485.76871	659.35126	-11.78638	588.94299	-36.60358	1344.36169	-909.41772	
730	7.290				739.93231	35.31446	-626.30975	-759.18262	-11.26545	486.79196	656.71497	-13.33685	588.73322	-37.35277	1344.83313	-908.80988	
731	7.300				739.24207	35.57013	-626.23907	-759.92328	-11.76742	486.78796	656.28528	-13.44814	588.66376	-37.87916	1345.27429	-908.26666	
732	7.310				738.66479	35.80383	-626.15778	-760.51587	-11.91204	487.06387	656.15204	-13.40037	588.75433	-38.56653	1345.76282	-907.70636	
733	7.320				738.11829	36.14025	-626.13385	-761.23401	-12.05373	487.16214	655.39178	-13.99826	588.84717	-39.17887	1346.36609	-907.16882	
734	7.330				737.70105	36.40715	-626.16132	-762.00677	-11.90588	487.04803	654.56323	-14.45806	589.27258	-39.85823	1346.79968	-906.50134	
735	7.340				736.71552	36.77808	-626.06342	-762.45892	-12.06387	487.08029	655.48169	-13.23828	589.33331	-40.40369	1347.17847	-905.71777	
736	7.350				736.19098	36.96237	-625.76996	-763.12689	-12.21162	486.93033	654.86200	-13.52390	589.48065	-41.33237	1347.47705	-904.90417	
737	7.360				735.77252	37.23367	-625.51965	-763.95386	-12.45737	486.93353	654.47314	-13.73119	589.52722	-41.84292	1347.70532	-904.09857	
738	7.370				735.26227	37.38701	-625.62323	-764.25012	-12.71770	487.13776	654.68738	-13.43827	589.66937	-42.13727	1348.08313	-903.26202	
739	7.380				734.69580	37.66003	-625.76563	-764.62604	-12.96287	487.21591	654.18335	-13.70816	589.73328	-42.32686	1348.45251	-902.43323	
740	7.390				734.32202	37.90045	-625.70416	-765.07837	-13.09689	487.20233	653.75684	-13.85993	589.78839	-43.29497	1348.90076	-901.66266	
741	7.400				733.59656	38.34638	-625.44922	-765.70752	-13.17175	487.27844	652.34143	-14.47690	589.66974	-43.81608	1349.29456	-900.99908	
742	7.410				733.29968	38.51962	-625.18292	-766.47565	-13.48811	487.47473	652.00745	-14.59842	589.70654	-44.26517	1349.51099	-900.52631	
743	7.420				732.89557	38.65548	-625.19720	-766.85327	-13.63838	487.56931	651.76074	-14.72058	589.77917	-44.56189	1349.66577	-900.03925	
744	7.430				732.37140	38.87619	-625.29504	-767.08929	-13.81234	487.63449	651.34906	-14.95501	589.80963	-44.94054	1350.02722	-899.65814	
745	7.440				732.00122	39.18423	-625.31323	-767.24829	-13.91995	487.57492	650.72040	-15.27516	589.79718	-45.32735	1350.46082	-899.46124	
746	7.450				731.67853	39.44236	-625.38306	-767.50543	-13.97038	487.52121	650.21375	-15.51437	589.79803	-45.81620	1350.83057	-899.38751	
747	7.460				731.60083	39.63040	-625.23889	-767.96027	-14.15698	487.49042	649.91376	-15.70972	589.86353	-46.14033	1351.17896	-899.01477	
748	7.470				731.27399	39.77606	-625.12195	-768.43585	-14.24743	487.47269	649.18799	-16.36130	590.14825	-46.52367	1351.37817	-898.82507	
749	7.480				730.84845	39.98590	-625.02563	-768.71405	-14.35931	487.54712	648.85486	-16.56442	589.72168	-46.94177	1351.66895	-898.45868	
750	7.490				730.54590	40.12004	-624.94342	-768.80115	-14.48845	487.61591	648.72461	-16.64458	589.66992	-47.16394	1351.80566	-897.98511	
751	7.500				730.38544	40.28567	-624.83740	-768.89856	-14.53690	487.67941	648.46143	-16.86839	589.59534	-47.44446	1352.09204	-897.46704	
752	7.510				730.18475	40.45608	-624.80164	-769.03882	-14.59548	487.65756	648.38251	-16.89693	589.59094	-47.53680	1352.12268	-897.02002	
753	7.520				730.06372	40.51365	-624.78058	-769.16687	-14.68960	487.72208	648.02704	-17.10987	589.40857	-47.24640	1352.14612	-896.45117	
754	7.530				729.89966	40.39842	-624.84613	-769.11896	-14.98058	487.96408	647.65234	-17.44847	589.38470	-47.25071	1352.23767	-896.09021	
755	7.540				729.95624	40.36134	-624.75238	-769.17419	-15.08517	487.91803	647.16174	-17.77262	589.02698	-47.25086	1352.36646	-895.83624	
756	7.550				729.87128	40.37166	-624.73041	-769.31927	-15.14009	487.85916	649.40387	-16.12014	590.14557	-47.30132	1352.45471	-895.72754	
757	7.560				729.83948	40.56814	-624.71393	-769.37634	-15.16590	487.84372	649.08258	-16.44876	590.57959	-47.47794	1352.52954	-895.54596	
758	7.570				729.88147	40.61995	-624.66962	-769.63220	-14.91562	487.47739	648.64758	-16.73304	590.43579	-47.55069	1352.69482	-895.50140	
759	7.580				730.04919	40.76339	-624.49890	-769.64227	-14.89561	487.43011	648.25293	-16.98826	590.18176	-47.34529	1352.85889	-895.64111	
760	7.590				730.07898	40.82648	-624.45038	-769.65552	-14.95963	487.42795	648.19952	-17.05026	590.12000	-47.44955	1353.04285	-895.69305	
761	7.600				730.13361	40.90732	-624.43427	-769.76001	-15.07962	487.39233	647.73199	-17.31231	589.92847	-47.20814	1353.10315	-895.73566	
762	7.610				730.12793	40.94770	-624.40417	-769.79865	-15.18606	487.36072	647.41980	-17.49027	589.87402	-47.20341	1353.08704	-895.80414	
763	7.620				730.12671	40.92038	-624.37366	-769.72845	-15.10494	487.38544	647.37500	-17.54543	589.82599	-47.22346	1353.14587	-895.74445	
764	7.630				730.23212	41.08552	-624.29865	-769.68842	-15.05028	487.41324	647.41425	-17.53210	589.87762	-47.25107	1353.21191	-895.57471	
765	7.640				730.25879	41.17962	-624.28137	-769.68640	-15.06963	487.39426	647.54742	-17.47994	589.87134	-47.33636	1353.32874	-895.38110	
766	7.650				730.22473	41.11402	-624.34576	-769.69617	-15.14180	487.36896	647.44781	-17.56029	589.85742	-47.45784	1353.29346	-895.22363	
767	7.660				730.36859	41.08669	-624.32208	-769.68268	-15.16620	487.36542	647.51489	-17.64228	589.85883	-47.41719	1353.40710	-895.06024	
768	7.670				730.72992	41.28777	-624.22870	-769.43994	-15.05276	487.44638	647.74664	-17.69731	589.84833	-47.22252	1353.38867	-894.88239	
769	7.680				730.93457	41.40497	-624.30096	-769.05389	-14.93021	487.50528	648.51935	-17.59495	589.89264	-46.96163	1353.43030	-894.72803	
770	7.690				731.08752	41.41296	-624.52826	-768.76550	-14.92004	487.51321	648.79895	-17.62020	589.88989	-46.62251	1353.34790	-894.56226	
771	7.700				731.24841	41.29428	-624.65308	-768.57458	-14.87048	487.42352	649.08032	-17.63742	589.84711	-46.26374	1353.32813	-894.36432	
772	7.710				731.50568	41.19503	-624.69824	-768.27039	-14.86334	487.44461	649.27808	-17.60160	589.77667	-46.14680	1353.21265	-894.44147	
773	7.720				731.77686	41.15211	-624.65759	-768.02386	-14.81170	487.44312	649.36969	-17.61158	589.75500	-45.89025	1353.09595	-894.45563	
774	7.730				732.12628	41.01336	-624.70490	-767.72491	-14.73990	487.39810	648.94482	-17.85749	589.66345	-45.51847	1352.96875	-894.48505	
775	7.740				732.36768	40.85645	-624.76379	-767.47113	-14.71470	487.40433	649.22882	-17.83305	589.55219	-45.10067	1352.78979	-894.85895	
776	7.750				732.59460	40.83223	-624.73798	-767.21991	-14.64972	487.43585	648.95514	-18.12714	589.17615	-44.77735	1352.73730	-895.21222	
777	7.760				732.80536	40.80795	-624.71545	-766.92810	-14.51981	487.43503	650.05701	-17.91686	588.92450	-44.39784	1352.63501	-895.79901	
778	7.770				733.16760	40.73259	-624.72009	-766.62958	-14.60860	487.48721	652.00476	-16.67260	590.13940	-44.37014	1352.57947	-896.23926	
779	7.780				733.73608	40.62693	-624.68396	-765.97845	-14.62472	487.48358	652.35144	-16.61263	590.10260	-44.20575	1352.48914	-896.67816	
780	7.790				734.34845	40.56261	-624.78290	-765.35034	-14.57990	487.55884	653.02264	-16.25856	590.77826	-43.46635	1352.44067	-897.35315	
781	7.800				734.74786	40.46508	-624.91516	-765.11212	-14.36795	487.51846	652.97662	-16.55287	590.55896	-43.01732	1352.31653	-897.52448	
782	7.810				735.00269	40.34531	-625.00342	-764.81293	-14.32798	487.42340	653.31659	-16.51975	590.49268	-42.52858	1352.11072	-897.79614	
783	7.820				735.38611	40.12698	-625.03381	-764.48737	-14.18709	487.37067	653.78986	-16.41900	590.44629	-42.05310	1351.95142	-897.96625	
784	7.830				735.81750	39.99162	-624.92596	-764.07819	-14.12585	487.28708	654.04077	-16.25076	590.20508	-41.42643	1351.65735	-897.92767	
785	7.840				736.10858	39.86912	-624.96088	-763.41321	-14.08996	487.22418	654.34631	-16.17014	590.03046	-41.19702	1351.21558	-897.86530	
786	7.850				736.59100	39.75797	-624.86926	-762.83301	-13.87893	487.16956	654.71332	-16.12775	589.92810	-40.81652	1351.13049	-897.86890	
787	7.860				737.31525	39.45390	-625.09131	-762.58258	-13.64698	487.08392	654.74695	-16.27471	589.62366	-40.30568	1350.77209	-898.08887	
788	7.870				737.83624	39.31520	-625.30597	-761.95648	-13.35766	487.14975	655.26141	-16.18693	589.31628	-39.57711	1350.41980	-898.54065	
789	7.880				738.24036	39.12633	-625.36981	-761.62317	-13.37652	487.15704	655.65686	-16.04569	589.22815	-39.18501	1350.18652	-899.00189	
